<svg 
  viewBox="0 0 280 283" 
  fill="none" 
  xmlns="http://www.w3.org/2000/svg"
>
  <g id="Background">
    <path 
      id="Path 0" 
      fill="#4f46e5" 
      d="m81 46.32c-4.13 1.24-9.97 3.59-13 5.22-3.03 1.63-8.91 6.33-13.07 10.46-5.56 5.52-8.54 9.48-11.23 15-2.02 4.12-4.35 10.2-5.19 13.5-1.26 4.96-1.52 14.42-1.52 54.75 0.01 31.29 0.4 50.63 1.1 54 0.6 2.89 2.91 9.07 5.14 13.75 3.19 6.7 5.67 10.11 11.66 16.09 5.51 5.5 9.68 8.61 15.11 11.28 4.13 2.02 9.97 4.34 13 5.14 4.47 1.19 14.89 1.47 55.5 1.5 48.12 0.03 50.26-0.05 57-2.09 3.85-1.16 9.7-3.53 13-5.26 3.48-1.82 9.16-6.29 13.53-10.65 5.47-5.46 8.53-9.56 11.21-15.01 2.02-4.13 4.4-10.65 5.28-14.5 1.38-6.03 1.56-13.96 1.29-57l-0.31-50c-4.25-11.63-7.47-17.92-9.89-21.5-2.43-3.58-6.26-8.19-8.51-10.25-2.26-2.06-6.46-5.32-9.35-7.25-2.89-1.92-8.62-4.73-12.75-6.25l-7.5-2.75c-102.37-0.43-103.09-0.41-110.5 1.82z"
    />
    <path 
      id="Path 1" 
      fill="white" 
      d="m164.37 106.18c-1.44 3.21-2.85 4.59-6.12 6-2.34 1-4.25 2.49-4.25 3.32 0 0.82 2.01 2.51 4.47 3.75 3.28 1.65 4.95 3.32 6.25 6.25 0.98 2.2 2.46 4 3.28 4 0.82 0 2.4-1.89 3.5-4.2 1.45-3.04 3.16-4.75 6.25-6.25 2.34-1.13 4.25-2.73 4.25-3.55 0-0.83-1.91-2.32-4.25-3.32-3.22-1.39-4.73-2.85-6.25-6.04-1.16-2.44-2.68-4.19-3.63-4.17-0.93 0.02-2.43 1.82-3.5 4.21zm-41.51 12.49c-0.75 0.92-2.8 4.86-4.57 8.75l-3.2 7.08c-15.48 7.46-16.62 8.37-16.84 10.75-0.23 2.54 0.4 3.06 8.25 6.75l8.5 4c7.69 16.35 8.21 16.98 10.75 16.75 2.38-0.22 3.29-1.37 6.75-8.48l4-8.22c11.62-5.29 15.68-7.57 16.5-8.48 1.19-1.33 1.26-2.12 0.35-3.87-0.7-1.34-4.22-3.51-9-5.56l-7.85-3.36c-5.43-12.37-7.79-16.37-8.75-16.87-0.96-0.5-2.15-0.91-2.64-0.91-0.49 0-1.5 0.75-2.25 1.67zm41.45 46.58c-1.48 3.12-3.13 4.78-6.22 6.25-2.6 1.24-4.08 2.57-3.89 3.5 0.16 0.82 2.19 2.4 4.51 3.5 3.07 1.46 4.69 3.08 6 6 0.98 2.2 2.47 4 3.29 4 0.82 0 2.4-1.85 3.5-4.12 1.41-2.89 3.19-4.67 6-6 2.2-1.03 4.14-2.56 4.3-3.38 0.19-0.93-1.29-2.26-3.89-3.5-3.04-1.45-4.79-3.18-6.31-6.27-1.17-2.37-2.8-4.26-3.69-4.25-0.88 0.01-2.49 1.92-3.6 4.27z" 
    />
  </g>
</svg>
